<svg width="30" height="30" viewBox="0 0 30 30" fill="none" xmlns="http://www.w3.org/2000/svg">
<path d="M21.285 0H8.715C3.255 0 0 3.255 0 8.715V21.27C0 26.745 3.255 30 8.715 30H21.27C26.73 30 29.985 26.745 29.985 21.285V8.715C30 3.255 26.745 0 21.285 0ZM24 16.125H16.125V24C16.125 24.615 15.615 25.125 15 25.125C14.385 25.125 13.875 24.615 13.875 24V16.125H6C5.385 16.125 4.875 15.615 4.875 15C4.875 14.385 5.385 13.875 6 13.875H13.875V6C13.875 5.385 14.385 4.875 15 4.875C15.615 4.875 16.125 5.385 16.125 6V13.875H24C24.615 13.875 25.125 14.385 25.125 15C25.125 15.615 24.615 16.125 24 16.125Z" fill="#AABACD"/>
</svg>
