<svg width="21" height="21" viewBox="0 0 21 21" fill="none" xmlns="http://www.w3.org/2000/svg">
<path d="M17.3287 6.57372L7.69868 1.75872C1.22993 -1.48128 -1.42507 1.17372 1.81493 7.64247L2.79368 9.59997C3.07493 10.1737 3.07493 10.8375 2.79368 11.4112L1.81493 13.3575C-1.42507 19.8262 1.21868 22.4812 7.69868 19.2412L17.3287 14.4262C21.6487 12.2662 21.6487 8.73372 17.3287 6.57372ZM13.6949 11.3437H7.61993C7.15868 11.3437 6.77618 10.9612 6.77618 10.5C6.77618 10.0387 7.15868 9.65622 7.61993 9.65622H13.6949C14.1562 9.65622 14.5387 10.0387 14.5387 10.5C14.5387 10.9612 14.1562 11.3437 13.6949 11.3437Z" fill="url(#paint0_linear_3132_28)"/>
<defs>
<linearGradient id="paint0_linear_3132_28" x1="0.430664" y1="0.376465" x2="22.0699" y2="2.13343" gradientUnits="userSpaceOnUse">
<stop stop-color="#34BE7C"/>
<stop offset="1" stop-color="#2EB6A5"/>
</linearGradient>
</defs>
</svg>
