<svg width="587" height="391" viewBox="0 0 587 391" fill="none" xmlns="http://www.w3.org/2000/svg">
<path fill-rule="evenodd" clip-rule="evenodd" d="M331.41 195.715L331.36 207.238C330.965 252.942 328.21 293.719 323.458 319.561C323.458 320.027 318.275 345.656 314.974 354.188C309.791 366.519 300.419 376.985 288.668 383.617C279.261 388.348 269.392 390.75 259.062 390.75C250.941 390.374 237.549 386.287 227.991 382.861L220.048 379.817C167.437 358.919 66.8672 290.634 28.3502 248.874L25.5105 245.955L12.8369 232.277C4.84943 221.811 0.625 209.014 0.625 195.249C0.625 182.918 4.38794 170.587 11.9139 160.622C14.1669 157.394 17.7961 153.252 21.0263 149.753L33.3619 136.84C75.8112 93.8307 167.721 33.5021 215.362 13.5128C215.362 13.0827 244.969 0.71599 259.062 0.25H260.943C282.563 0.25 302.762 12.5808 313.092 32.5109C315.914 37.9594 318.621 48.6324 320.68 58.0059L324.381 75.7046C328.605 104.166 331.41 147.826 331.41 195.715ZM537.457 146.091C564.472 146.091 586.375 168.207 586.375 195.486C586.375 222.764 564.472 244.881 537.457 244.881L417.078 234.235C395.884 234.235 378.703 216.921 378.703 195.486C378.703 174.086 395.884 156.737 417.078 156.737L537.457 146.091Z" fill="white"/>
</svg>
