<svg width="686" height="610" viewBox="0 0 686 610" fill="none" xmlns="http://www.w3.org/2000/svg">
<path fill-rule="evenodd" clip-rule="evenodd" d="M236.063 116.466C236.063 180.399 183.356 232.219 118.281 232.219C53.2447 232.219 0.5 180.399 0.5 116.466C0.5 52.5697 53.2447 0.75 118.281 0.75C183.356 0.75 236.063 52.5697 236.063 116.466ZM633.898 65.7676C662.363 65.7676 685.501 88.4995 685.501 116.466C685.501 144.469 662.363 167.201 633.898 167.201H408.686C380.183 167.201 357.045 144.469 357.045 116.466C357.045 88.4995 380.183 65.7676 408.686 65.7676H633.898ZM52.1411 444.56H277.353C305.856 444.56 328.994 467.292 328.994 495.295C328.994 523.261 305.856 546.031 277.353 546.031H52.1411C23.6377 546.031 0.5 523.261 0.5 495.295C0.5 467.292 23.6377 444.56 52.1411 444.56ZM567.719 609.639C632.794 609.639 685.5 557.819 685.5 493.923C685.5 429.99 632.794 378.17 567.719 378.17C502.682 378.17 449.938 429.99 449.938 493.923C449.938 557.819 502.682 609.639 567.719 609.639Z" fill="url(#paint0_linear_366_57)"/>
<defs>
<linearGradient id="paint0_linear_366_57" x1="0.5" y1="0.75" x2="735.223" y2="68.2246" gradientUnits="userSpaceOnUse">
<stop stop-color="#34BE7C"/>
<stop offset="1" stop-color="#2EB6A5"/>
</linearGradient>
</defs>
</svg>
