<svg width="891" height="891" viewBox="0 0 891 891" fill="none" xmlns="http://www.w3.org/2000/svg">
<path d="M445.5 74.25C348.233 74.25 269.156 153.326 269.156 250.594C269.156 346.005 343.778 423.225 441.045 426.566C444.015 426.195 446.985 426.195 449.213 426.566C449.955 426.566 450.326 426.566 451.069 426.566C451.44 426.566 451.44 426.566 451.811 426.566C546.851 423.225 621.473 346.005 621.844 250.594C621.844 153.326 542.767 74.25 445.5 74.25Z" fill="#D1DAE6"/>
<path d="M634.095 525.319C530.516 456.266 361.598 456.266 257.276 525.319C210.128 556.875 184.14 599.569 184.14 645.232C184.14 690.896 210.128 733.219 256.905 764.404C308.88 799.301 377.19 816.75 445.5 816.75C513.81 816.75 582.12 799.301 634.095 764.404C680.873 732.847 706.86 690.525 706.86 644.49C706.489 598.826 680.873 556.504 634.095 525.319Z" fill="#D1DAE6"/>
</svg>
