<svg width="28" height="28" viewBox="0 0 28 28" fill="none" xmlns="http://www.w3.org/2000/svg">
<rect opacity="0.4" width="28" height="28" rx="8" fill="black"/>
<path fill-rule="evenodd" clip-rule="evenodd" d="M16.8873 6.87561C17.3605 6.87561 17.833 6.94236 18.2823 7.09311C21.0505 7.99311 22.048 11.0306 21.2148 13.6856C20.7423 15.0424 19.9698 16.2806 18.958 17.2924C17.5098 18.6949 15.9205 19.9399 14.2098 21.0124L14.0223 21.1256L13.8273 21.0049C12.1105 19.9399 10.5123 18.6949 9.05052 17.2849C8.04552 16.2731 7.27227 15.0424 6.79227 13.6856C5.94477 11.0306 6.94227 7.99311 9.74052 7.07736C9.95802 7.00236 10.1823 6.94986 10.4073 6.92061H10.4973C10.708 6.88986 10.9173 6.87561 11.1273 6.87561H11.2098C11.6823 6.88986 12.1398 6.97236 12.583 7.12311H12.6273C12.6573 7.13736 12.6798 7.15311 12.6948 7.16736C12.8605 7.22061 13.0173 7.28061 13.1673 7.36311L13.4523 7.49061C13.5211 7.52734 13.5984 7.58346 13.6652 7.63196C13.7076 7.66269 13.7457 7.69036 13.7748 7.70811C13.787 7.71533 13.7994 7.72259 13.812 7.72991C13.8763 7.76745 13.9433 7.80655 13.9998 7.84986C14.833 7.21311 15.8448 6.86811 16.8873 6.87561ZM18.8823 12.2756C19.1898 12.2674 19.4523 12.0206 19.4748 11.7049V11.6156C19.4973 10.5649 18.8605 9.61311 17.8923 9.24561C17.5848 9.13986 17.2473 9.30561 17.1348 9.62061C17.0298 9.93561 17.1948 10.2806 17.5098 10.3924C17.9905 10.5724 18.3123 11.0456 18.3123 11.5699V11.5931C18.298 11.7649 18.3498 11.9306 18.4548 12.0581C18.5598 12.1856 18.7173 12.2599 18.8823 12.2756Z" fill="#FF4141"/>
</svg>
