<svg width="743" height="743" viewBox="0 0 743 743" fill="none" xmlns="http://www.w3.org/2000/svg">
<path fill-rule="evenodd" clip-rule="evenodd" d="M0.247314 322.121C0.247314 144.357 142.82 0.250488 318.692 0.250488C403.149 0.250488 484.147 34.1618 543.867 94.5243C603.587 154.887 637.137 236.756 637.137 322.121C637.137 499.886 494.564 643.992 318.692 643.992C142.82 643.992 0.247314 499.886 0.247314 322.121ZM631.868 581.416L726.71 657.972H728.356C747.544 677.367 747.544 708.811 728.356 728.205C709.169 747.599 678.059 747.599 658.872 728.205L580.166 638.001C572.725 630.506 568.543 620.326 568.543 609.708C568.543 599.091 572.725 588.91 580.166 581.416C594.516 567.163 617.518 567.163 631.868 581.416Z" fill="url(#paint0_linear_366_32)"/>
<defs>
<linearGradient id="paint0_linear_366_32" x1="0.247314" y1="0.250488" x2="798.043" y2="65.3767" gradientUnits="userSpaceOnUse">
<stop stop-color="#34BE7C"/>
<stop offset="1" stop-color="#2EB6A5"/>
</linearGradient>
</defs>
</svg>
