<svg width="16" height="19" viewBox="0 0 16 19" fill="none" xmlns="http://www.w3.org/2000/svg">
<path d="M13.3033 13.4698L8 18.7731L2.69667 13.4698C1.64779 12.4209 0.933489 11.0845 0.644107 9.62965C0.354725 8.17479 0.503256 6.6668 1.07092 5.29636C1.63858 3.92592 2.59987 2.75458 3.83324 1.93048C5.0666 1.10637 6.51665 0.666504 8 0.666504C9.48336 0.666504 10.9334 1.10637 12.1668 1.93048C13.4001 2.75458 14.3614 3.92592 14.9291 5.29636C15.4968 6.6668 15.6453 8.17479 15.3559 9.62965C15.0665 11.0845 14.3522 12.4209 13.3033 13.4698ZM8 11.4998C8.88406 11.4998 9.7319 11.1486 10.357 10.5235C10.9821 9.89834 11.3333 9.0505 11.3333 8.16644C11.3333 7.28238 10.9821 6.43454 10.357 5.80942C9.7319 5.1843 8.88406 4.83311 8 4.83311C7.11595 4.83311 6.2681 5.1843 5.64298 5.80942C5.01786 6.43454 4.66667 7.28238 4.66667 8.16644C4.66667 9.0505 5.01786 9.89834 5.64298 10.5235C6.2681 11.1486 7.11595 11.4998 8 11.4998ZM8 9.83311C7.55798 9.83311 7.13405 9.65751 6.82149 9.34495C6.50893 9.03239 6.33334 8.60847 6.33334 8.16644C6.33334 7.72441 6.50893 7.30049 6.82149 6.98793C7.13405 6.67537 7.55798 6.49977 8 6.49977C8.44203 6.49977 8.86595 6.67537 9.17851 6.98793C9.49107 7.30049 9.66667 7.72441 9.66667 8.16644C9.66667 8.60847 9.49107 9.03239 9.17851 9.34495C8.86595 9.65751 8.44203 9.83311 8 9.83311Z" fill="#818B9B"/>
</svg>
