<svg width="20" height="22" viewBox="0 0 20 22" fill="none" xmlns="http://www.w3.org/2000/svg">
<path d="M7.95405 1.21021C9.30298 0.927349 10.6958 0.926668 12.045 1.20821C12.1349 1.8015 12.3574 2.3669 12.6958 2.86239C13.0343 3.35788 13.4801 3.77072 14 4.07021C14.5196 4.37075 15.1002 4.55028 15.6987 4.59547C16.2973 4.64065 16.8983 4.55033 17.457 4.33121C18.3753 5.35928 19.0709 6.56625 19.5 7.87622C19.0314 8.25079 18.6532 8.72616 18.3935 9.26701C18.1338 9.80785 17.9993 10.4003 18 11.0002C18 12.2642 18.586 13.3912 19.502 14.1242C19.0704 15.4331 18.3739 16.6391 17.456 17.6672C16.8974 17.4483 16.2966 17.358 15.6983 17.4032C15.0999 17.4484 14.5195 17.6278 14 17.9282C13.4805 18.2276 13.0351 18.6402 12.6968 19.1353C12.3585 19.6304 12.1361 20.1954 12.046 20.7882C10.6973 21.0717 9.30439 21.0731 7.95505 20.7922C7.86559 20.1984 7.64335 19.6324 7.30487 19.1364C6.96639 18.6403 6.52038 18.227 6.00005 17.9272C5.48041 17.6268 4.89975 17.4475 4.30124 17.4025C3.70272 17.3575 3.10176 17.448 2.54305 17.6672C1.62465 16.6389 0.929052 15.4315 0.500047 14.1212C0.96844 13.7468 1.34651 13.2718 1.60618 12.7313C1.86586 12.1909 2.00048 11.5988 2.00005 10.9992C2.00054 10.3991 1.86575 9.80658 1.60571 9.26573C1.34568 8.72488 0.96707 8.24959 0.498047 7.87522C0.929715 6.56634 1.62616 5.36032 2.54405 4.33221C3.1027 4.55117 3.70352 4.64141 4.30184 4.59623C4.90017 4.55104 5.48062 4.37159 6.00005 4.07121C6.51959 3.77181 6.96503 3.35924 7.30331 2.86412C7.64158 2.369 7.864 1.80406 7.95405 1.21121V1.21021ZM10 14.0002C10.7957 14.0002 11.5588 13.6841 12.1214 13.1215C12.684 12.5589 13 11.7959 13 11.0002C13 10.2046 12.684 9.4415 12.1214 8.87889C11.5588 8.31629 10.7957 8.00022 10 8.00022C9.2044 8.00022 8.44134 8.31629 7.87873 8.87889C7.31612 9.4415 7.00005 10.2046 7.00005 11.0002C7.00005 11.7959 7.31612 12.5589 7.87873 13.1215C8.44134 13.6841 9.2044 14.0002 10 14.0002Z" fill="#B8BFC9"/>
</svg>
