<svg width="630" height="630" viewBox="0 0 630 630" fill="none" xmlns="http://www.w3.org/2000/svg">
<path d="M497.21 453.435L629.804 585.998L585.998 629.805L453.434 497.21C404.11 536.751 342.758 558.257 279.541 558.167C125.74 558.167 0.916504 433.343 0.916504 279.542C0.916504 125.741 125.74 0.916992 279.541 0.916992C433.342 0.916992 558.166 125.741 558.166 279.542C558.256 342.759 536.75 404.11 497.21 453.435ZM435.107 430.464C474.397 390.06 496.339 335.899 496.25 279.542C496.25 159.795 399.257 62.8337 279.541 62.8337C159.795 62.8337 62.8332 159.795 62.8332 279.542C62.8332 399.258 159.795 496.25 279.541 496.25C335.899 496.339 390.059 474.397 430.463 435.108L435.107 430.464Z" fill="#9AA1B4"/>
</svg>
